# xmcd CD database file
#
# Track frame offsets:
#	150
#	24899
#	48082
#	74890
#	93287
#	110454
#	132453
#	156010
#
# Disc length: 2398 seconds
#
# Revision: 0
# Processed by: cddbd v1.5.2PL0 Copyright (c) Steve Scherf et al.
# Submitted via: CDex 1.51
#
DISCID=64095c08
DTITLE=Varios - Salsa Divina 1
DYEAR=1900
DGENRE=Salsa
TTITLE0=El Todo Poderoso - Alex de Castro
TTITLE1=Cuestion de Fe - Tony Vega
TTITLE2=Juan en la Ciudad - Richie y Bobby
TTITLE3=Celeste - Johny el Bravo
TTITLE4=Yo le creo a Dios - Wanda  Rolon
TTITLE5=Buscando el Camino - Andy Montañez
TTITLE6=El Nazareno - Piro Romero
TTITLE7=Alabao - Luis Perico Ortiz
EXTD=
EXTT0=
EXTT1=
EXTT2=
EXTT3=
EXTT4=
EXTT5=
EXTT6=
EXTT7=
PLAYORDER=
